<svg width="713" height="859" viewBox="0 0 713 859" fill="none" xmlns="http://www.w3.org/2000/svg">
<g filter="url(#filter0_i_23_90)">
<path fill-rule="evenodd" clip-rule="evenodd" d="M709.567 555.684C731.894 449.692 623.77 489.645 598.053 435.101C566.814 368.844 663.404 25.9433 567.241 1.24207C399.132 -9.53243 385.996 215.949 312.754 235.945C241.749 255.331 126.09 293.979 69.9966 341.635C16.3049 387.25 -48.1054 511.429 54.1023 589.626C132.141 646.233 172.935 618.627 201.73 668.675C232.22 721.668 246.176 787.18 298.126 819.415C354.426 854.35 428.206 871.485 489.986 847.539C550.116 824.233 568.429 751.15 607.201 699.617C643.484 651.391 706.047 615.933 709.567 555.684Z" fill="#162C4E"/>
</g>
<defs>
<filter id="filter0_i_23_90" x="0.0229797" y="0.868164" width="712.56" height="861.802" filterUnits="userSpaceOnUse" color-interpolation-filters="sRGB">
<feFlood flood-opacity="0" result="BackgroundImageFix"/>
<feBlend mode="normal" in="SourceGraphic" in2="BackgroundImageFix" result="shape"/>
<feColorMatrix in="SourceAlpha" type="matrix" values="0 0 0 0 0 0 0 0 0 0 0 0 0 0 0 0 0 0 127 0" result="hardAlpha"/>
<feOffset dy="4"/>
<feGaussianBlur stdDeviation="15"/>
<feComposite in2="hardAlpha" operator="arithmetic" k2="-1" k3="1"/>
<feColorMatrix type="matrix" values="0 0 0 0 0 0 0 0 0 0 0 0 0 0 0 0 0 0 1 0"/>
<feBlend mode="normal" in2="shape" result="effect1_innerShadow_23_90"/>
</filter>
</defs>
</svg>
